<svg width="37" height="36" viewBox="0 0 37 36" fill="none" xmlns="http://www.w3.org/2000/svg">
<path d="M0.294598 17.7128C0.13321 17.8699 0.133199 18.1291 0.294573 18.2862L5.299 23.1565C5.48896 23.3414 5.44884 23.6555 5.23068 23.806C5.01888 23.9522 4.81496 24.1145 4.62434 24.2999C4.13701 24.772 3.75031 25.333 3.48645 25.9509C3.22258 26.5687 3.08675 27.2312 3.08675 27.9002C3.08675 28.5692 3.22258 29.2317 3.48645 29.8495C3.75031 30.4674 4.13701 31.0284 4.62434 31.5005C5.10945 31.9746 5.68605 32.3509 6.32103 32.6077C6.95601 32.8644 7.63686 32.9966 8.32448 32.9966C9.0121 32.9966 9.69294 32.8644 10.3279 32.6077C10.9629 32.3509 11.5395 31.9746 12.0247 31.5005C12.221 31.3094 12.392 31.1052 12.546 30.8925C12.6964 30.6849 12.9973 30.6459 13.1811 30.8247L18.221 35.7286C18.3763 35.8797 18.6236 35.8797 18.7789 35.7286L23.7933 30.8496C23.985 30.6631 23.9428 30.3444 23.724 30.1906C23.5124 30.0418 23.3123 29.8777 23.1256 29.6994C22.6385 29.2275 22.2519 28.6665 21.9882 28.0487C21.7245 27.431 21.5887 26.7687 21.5887 26.0999C21.5887 25.431 21.7245 24.7685 21.9882 24.1508C22.2519 23.5331 22.6385 22.9722 23.1256 22.5003C23.6107 22.0262 24.1872 21.6501 24.8221 21.3935C25.457 21.1369 26.1376 21.0048 26.8251 21.0048C27.5126 21.0048 28.1932 21.1369 28.8282 21.3935C29.463 21.6501 30.0395 22.0262 30.5246 22.5003C30.713 22.6874 30.886 22.8881 31.0424 23.1007C31.1958 23.3094 31.5014 23.3508 31.6871 23.1702L36.7054 18.2873C36.8668 18.1302 36.8668 17.871 36.7054 17.7139L31.7 12.8424C31.5104 12.6578 31.55 12.3444 31.7677 12.1939C31.9801 12.0472 32.1845 11.8846 32.3756 11.6987C32.8628 11.2268 33.2493 10.6659 33.513 10.0482C33.7768 9.43044 33.9125 8.76801 33.9125 8.09911C33.9125 7.4302 33.7768 6.76794 33.513 6.15022C33.2493 5.53249 32.8628 4.97148 32.3756 4.49948C31.8905 4.02531 31.314 3.64917 30.679 3.39243C30.0439 3.13568 29.3631 3.00352 28.6755 3.00352C27.9879 3.00352 27.307 3.13568 26.6721 3.39243C26.0371 3.64917 25.4605 4.02531 24.9753 4.49948C24.779 4.6898 24.6079 4.89436 24.4539 5.10736C24.3036 5.31514 24.0026 5.35413 23.8189 5.17531L18.7789 0.271418C18.6236 0.120332 18.3763 0.120333 18.221 0.27142L13.2017 5.15534C13.0115 5.34038 13.0519 5.6549 13.2702 5.80575C13.4816 5.95185 13.6846 6.11402 13.8743 6.29938C14.3617 6.77139 14.7484 7.33242 15.0122 7.95026C15.2761 8.5681 15.412 9.23056 15.412 9.89962C15.412 10.5687 15.2761 11.2311 15.0122 11.849C14.7484 12.4668 14.3617 13.0278 13.8743 13.4998C13.3892 13.9739 12.8128 14.35 12.1779 14.6066C11.543 14.8632 10.8623 14.9953 10.1749 14.9953C9.4874 14.9953 8.8067 14.8632 8.17185 14.6066C7.53699 14.35 6.96048 13.9739 6.47539 13.4998C6.28704 13.3128 6.11399 13.112 5.95769 12.8993C5.80424 12.6906 5.49853 12.6492 5.31285 12.8299L0.294598 17.7128Z" fill="#6AAADC"/>
</svg>
