<svg width="143" height="166" viewBox="0 0 143 166" fill="none" xmlns="http://www.w3.org/2000/svg">
<g filter="url(#filter0_d_153_2)">
<rect x="24" y="22" width="94.7526" height="117.102" fill="#222222"/>
</g>
<path d="M48.525 82.525C48.525 84.725 48 86.255 46.95 87.115C46.52 87.455 46.055 87.69 45.555 87.82C45.055 87.94 44.4 88 43.59 88H39.705L39.57 87.175C40.33 86.895 40.75 86.75 40.83 86.74C40.83 86.71 40.785 84.065 40.695 78.805C40.255 78.695 39.84 78.565 39.45 78.415C39.51 77.895 39.55 77.59 39.57 77.5H43.545C44.525 77.5 45.305 77.6 45.885 77.8C46.475 78 46.995 78.355 47.445 78.865C48.165 79.705 48.525 80.925 48.525 82.525ZM43.725 86.545C44.865 86.545 45.62 86.27 45.99 85.72C46.37 85.17 46.56 84.22 46.56 82.87C46.56 81.52 46.35 80.54 45.93 79.93C45.51 79.31 44.81 79 43.83 79H42.735C42.695 82.37 42.67 84.885 42.66 86.545H43.725ZM56.7899 77.665L56.8049 77.815C56.8049 78.225 56.7399 78.575 56.6099 78.865C56.4799 78.965 56.2749 79.045 55.9949 79.105L58.4999 86.515L59.9249 86.695C59.9249 87.105 59.8099 87.54 59.5799 88H55.9349L55.7999 87.175C56.2199 87.015 56.4949 86.91 56.6249 86.86L56.0249 85.165H52.6499C52.3499 86.055 52.1899 86.52 52.1699 86.56L53.2049 86.695C53.2049 86.905 53.1649 87.15 53.0849 87.43C53.0049 87.7 52.9299 87.89 52.8599 88H49.2149L49.0799 87.175C49.5299 86.985 49.9349 86.845 50.2949 86.755L52.8149 79.045C52.1449 78.945 51.6399 78.815 51.2999 78.655C51.2999 78.365 51.3449 78.11 51.4349 77.89C51.6449 77.82 52.1349 77.74 52.9049 77.65C53.6849 77.55 54.4249 77.5 55.1249 77.5C55.8349 77.5 56.3899 77.555 56.7899 77.665ZM54.8549 81.79L54.4199 79.81H54.2699L53.7899 81.88L53.0849 83.755H55.5899L54.8549 81.79ZM67.0988 85.27C67.3388 85.23 67.5188 85.21 67.6388 85.21C67.7688 85.21 68.0438 85.245 68.4638 85.315C68.5038 85.395 68.5588 85.65 68.6288 86.08C68.7088 86.51 68.7488 86.86 68.7488 87.13C68.7488 87.39 68.7188 87.68 68.6588 88H61.3838L61.2488 87.175C61.7388 86.975 62.1588 86.83 62.5088 86.74C62.5088 86.71 62.4638 84.065 62.3738 78.805L61.1288 78.415L61.2488 77.5H65.1488C65.1388 77.5 65.1388 77.51 65.1488 77.53C65.1688 77.55 65.1888 77.595 65.2088 77.665C65.2388 77.725 65.2688 77.8 65.2988 77.89C65.3588 78.05 65.3988 78.315 65.4188 78.685C64.9088 78.765 64.5738 78.815 64.4138 78.835C64.3738 82.285 64.3488 84.86 64.3388 86.56H66.7688L67.0988 85.27ZM75.9757 85.27C76.2157 85.23 76.3957 85.21 76.5157 85.21C76.6457 85.21 76.9207 85.245 77.3407 85.315C77.3807 85.395 77.4357 85.65 77.5057 86.08C77.5857 86.51 77.6257 86.86 77.6257 87.13C77.6257 87.39 77.5957 87.68 77.5357 88H70.2607L70.1257 87.175C70.6157 86.975 71.0357 86.83 71.3857 86.74C71.3857 86.71 71.3407 84.065 71.2507 78.805L70.0057 78.415L70.1257 77.5H74.0257C74.0157 77.5 74.0157 77.51 74.0257 77.53C74.0457 77.55 74.0657 77.595 74.0857 77.665C74.1157 77.725 74.1457 77.8 74.1757 77.89C74.2357 78.05 74.2757 78.315 74.2957 78.685C73.7857 78.765 73.4507 78.815 73.2907 78.835C73.2507 82.285 73.2257 84.86 73.2157 86.56H75.6457L75.9757 85.27ZM80.6677 86.095C80.7577 86.455 80.8027 86.765 80.8027 87.025C80.8027 87.275 80.7877 87.56 80.7577 87.88C80.4177 87.97 80.0927 88.015 79.7827 88.015C79.4727 88.015 79.1327 88 78.7627 87.97C78.6627 87.57 78.6127 87.28 78.6127 87.1C78.6127 86.91 78.6327 86.605 78.6727 86.185C79.0027 86.095 79.3177 86.05 79.6177 86.05C79.9277 86.05 80.2777 86.065 80.6677 86.095ZM84.7028 79C84.7028 80.14 84.6928 81.12 84.6728 81.94H86.2028L86.3528 80.905C86.8628 80.905 87.3578 81.03 87.8378 81.28V84.28L86.8478 84.325C86.6078 83.965 86.4678 83.65 86.4278 83.38H84.6578C84.6378 84.78 84.6278 85.835 84.6278 86.545H87.1928L87.5228 85.24C88.1428 85.24 88.6128 85.27 88.9328 85.33C89.0828 85.9 89.1578 86.42 89.1578 86.89C89.1578 87.35 89.1428 87.72 89.1128 88H81.6728L81.5378 87.175C82.1878 86.925 82.6078 86.78 82.7978 86.74C82.7878 86.15 82.7778 85.32 82.7678 84.25C82.7278 81.85 82.6928 80.035 82.6628 78.805L81.4178 78.415L81.5378 77.5H88.9028C88.9328 77.77 88.9478 78.11 88.9478 78.52C88.9478 78.92 88.8728 79.48 88.7228 80.2C88.4128 80.3 87.9428 80.35 87.3128 80.35L86.9678 79H84.7028ZM97.1252 81.18L96.4052 81.2C96.1652 81.2 95.7785 81.1533 95.2452 81.06C94.9918 80.3667 94.8585 79.4933 94.8452 78.44C95.2052 78.08 95.7185 77.7467 96.3852 77.44C97.0652 77.12 97.7052 76.96 98.3052 76.96C99.5318 76.96 100.518 77.2733 101.265 77.9C102.025 78.5267 102.405 79.2533 102.405 80.08C102.405 80.9067 102.225 81.6333 101.865 82.26C101.505 82.8867 100.865 83.6 99.9452 84.4L97.8452 86.22H100.025C100.172 85.1667 100.265 84.5733 100.305 84.44C100.465 84.4133 100.712 84.4 101.045 84.4C101.378 84.4 101.725 84.4733 102.085 84.62C102.272 85.5533 102.365 86.4467 102.365 87.3L102.345 88H95.0452C94.8185 87.52 94.7052 87.0067 94.7052 86.46C97.6118 83.66 99.2118 82 99.5052 81.48C99.6785 81.1733 99.7652 80.7267 99.7652 80.14C99.7652 79.82 99.6318 79.5067 99.3652 79.2C99.0985 78.8933 98.6918 78.74 98.1452 78.74C97.8918 78.74 97.7052 78.7467 97.5852 78.76C97.5185 79.0533 97.4318 79.5 97.3252 80.1C97.2185 80.6867 97.1518 81.0467 97.1252 81.18Z" fill="white"/>
<defs>
<filter id="filter0_d_153_2" x="0" y="0" width="142.752" height="165.102" filterUnits="userSpaceOnUse" color-interpolation-filters="sRGB">
<feFlood flood-opacity="0" result="BackgroundImageFix"/>
<feColorMatrix in="SourceAlpha" type="matrix" values="0 0 0 0 0 0 0 0 0 0 0 0 0 0 0 0 0 0 127 0" result="hardAlpha"/>
<feOffset dy="2"/>
<feGaussianBlur stdDeviation="12"/>
<feComposite in2="hardAlpha" operator="out"/>
<feColorMatrix type="matrix" values="0 0 0 0 0 0 0 0 0 0 0 0 0 0 0 0 0 0 0.21 0"/>
<feBlend mode="normal" in2="BackgroundImageFix" result="effect1_dropShadow_153_2"/>
<feBlend mode="normal" in="SourceGraphic" in2="effect1_dropShadow_153_2" result="shape"/>
</filter>
</defs>
</svg>
